<?xml version="1.0" encoding="UTF-8" standalone="no"?><svg xmlns="http://www.w3.org/2000/svg" xmlns:xlink="http://www.w3.org/1999/xlink" fill="#000000" height="375" preserveAspectRatio="xMidYMid meet" version="1" viewBox="0.0 0.0 487.6 375.0" width="487.6" zoomAndPan="magnify"><g id="change1_1"><path d="M389,188.951c0,80.19-65.007,145.197-145.197,145.197S98.606,269.141,98.606,188.951 S163.613,43.754,243.803,43.754S389,108.761,389,188.951z" fill="#3ea9ff"/></g><g id="change2_1"><path d="M202.816,66.884H322.45c14.017,9.049,26.37,20.449,36.513,33.639H202.816c-9.289,0-16.82-7.531-16.82-16.82 C185.996,74.414,193.527,66.884,202.816,66.884z M268.426,119.868H116.064c-4.479,8.264-8.177,17.011-11.001,26.144h163.362 c7.219,0,13.072-5.852,13.072-13.072C281.498,125.721,275.645,119.868,268.426,119.868z M192.32,199.035L192.32,199.035 c0,11.219,9.094,20.313,20.313,20.313h173.17c2.089-9.804,3.197-19.971,3.197-30.397c0-3.44-0.128-6.849-0.364-10.229H212.633 C201.414,178.722,192.32,187.816,192.32,199.035z M133.354,283.193c8.745,10.24,18.888,19.247,30.135,26.729h160.627 c11.247-7.482,21.39-16.49,30.135-26.729H133.354z M243.803,243.395c-34.404,0-67.132-1.56-96.799-4.368 c-3.258,2.438-5.377,6.315-5.377,10.697c0,7.381,5.983,13.365,13.365,13.365h81.696c7.381,0,13.365-5.983,13.365-13.365 c0-2.295-0.58-4.455-1.599-6.342C246.905,243.389,245.358,243.395,243.803,243.395z M180.92,175.419L180.92,175.419 c0-6.327-5.129-11.456-11.456-11.456h-36.231c-6.327,0-11.456,5.129-11.456,11.456v0c0,6.327,5.129,11.456,11.456,11.456h36.231 C175.791,186.875,180.92,181.746,180.92,175.419z M344.649,146.012L344.649,146.012c0-5.892-4.776-10.668-10.668-10.668h-7.282 c-5.892,0-10.668,4.776-10.668,10.668v0c0,5.892,4.776,10.668,10.668,10.668h7.282C339.872,156.68,344.649,151.904,344.649,146.012 z" fill="#ffffff"/></g><g id="change3_1"><path d="M101.464,160.148c-46.998,6.948-76.788,17.274-76.788,28.803c0,20.922,98.107,37.882,219.128,37.882 s219.128-16.96,219.128-37.882c0-11.529-29.79-21.855-76.789-28.803l-3.355-13.335c63.059,9.584,104.32,25.512,104.32,43.541 c0,29.294-108.931,53.041-243.303,53.041S0.5,219.648,0.5,190.355c0-18.063,41.072-34.017,104.332-43.595l-1.894,6.85 L101.464,160.148z" fill="#ffd740"/></g><g id="change4_1"><path d="M422.72,20.881c0,3.135-2.541,5.676-5.676,5.676s-5.676-2.541-5.676-5.676s2.541-5.676,5.676-5.676 S422.72,17.746,422.72,20.881z M98.606,363.162c-3.135,0-5.676,2.541-5.676,5.676s2.541,5.676,5.676,5.676s5.676-2.541,5.676-5.676 S101.741,363.162,98.606,363.162z M147.303,328.472c-3.135,0-5.676,2.541-5.676,5.676s2.541,5.676,5.676,5.676 s5.676-2.541,5.676-5.676S150.438,328.472,147.303,328.472z M82.316,0.5c-18.452,0-33.41,14.958-33.41,33.41 s14.958,33.41,33.41,33.41s33.41-14.958,33.41-33.41S100.768,0.5,82.316,0.5z" fill="#ffd740"/></g><g id="change5_1"><path d="M422.72,90.971h13.673V77.298c0-0.276,0.224-0.5,0.5-0.5s0.5,0.224,0.5,0.5v13.673h13.673 c0.276,0,0.5,0.224,0.5,0.5s-0.224,0.5-0.5,0.5h-13.673v13.673c0,0.276-0.224,0.5-0.5,0.5s-0.5-0.224-0.5-0.5V91.971H422.72 c-0.276,0-0.5-0.224-0.5-0.5S422.444,90.971,422.72,90.971z M360.088,53.21h13.674v13.673c0,0.276,0.224,0.5,0.5,0.5 s0.5-0.224,0.5-0.5V53.21h13.673c0.276,0,0.5-0.224,0.5-0.5s-0.224-0.5-0.5-0.5h-13.673V38.537c0-0.276-0.224-0.5-0.5-0.5 s-0.5,0.224-0.5,0.5V52.21h-13.674c-0.276,0-0.5,0.224-0.5,0.5S359.812,53.21,360.088,53.21z M410.869,20.88 c0-3.405,2.771-6.175,6.176-6.175s6.176,2.77,6.176,6.175s-2.771,6.176-6.176,6.176S410.869,24.286,410.869,20.88z M411.869,20.88 c0,2.854,2.322,5.176,5.176,5.176s5.176-2.322,5.176-5.176c0-2.854-2.322-5.175-5.176-5.175S411.869,18.027,411.869,20.88z M103.411,310.438c0-0.276-0.224-0.5-0.5-0.5H89.238v-13.673c0-0.276-0.224-0.5-0.5-0.5s-0.5,0.224-0.5,0.5v13.673H74.564 c-0.276,0-0.5,0.224-0.5,0.5s0.224,0.5,0.5,0.5h13.673v13.674c0,0.276,0.224,0.5,0.5,0.5s0.5-0.224,0.5-0.5v-13.674h13.673 C103.188,310.938,103.411,310.714,103.411,310.438z M104.782,368.838c0,3.405-2.77,6.175-6.175,6.175s-6.176-2.77-6.176-6.175 s2.771-6.176,6.176-6.176S104.782,365.433,104.782,368.838z M103.782,368.838c0-2.854-2.322-5.176-5.175-5.176 c-2.854,0-5.176,2.322-5.176,5.176s2.322,5.175,5.176,5.175C101.46,374.013,103.782,371.691,103.782,368.838z M153.479,334.148 c0,3.405-2.77,6.175-6.175,6.175s-6.176-2.77-6.176-6.175s2.771-6.176,6.176-6.176S153.479,330.743,153.479,334.148z M152.479,334.148c0-2.854-2.322-5.176-5.175-5.176c-2.854,0-5.176,2.322-5.176,5.176s2.322,5.175,5.176,5.175 C150.157,339.323,152.479,337.002,152.479,334.148z M48.407,33.909C48.407,15.211,63.619,0,82.316,0s33.91,15.211,33.91,33.909 s-15.212,33.91-33.91,33.91S48.407,52.607,48.407,33.909z M49.407,33.909c0,18.146,14.763,32.91,32.91,32.91 s32.91-14.763,32.91-32.91C115.226,15.763,100.463,1,82.316,1S49.407,15.763,49.407,33.909z M487.607,190.354 c0,14.428-25.447,27.921-71.655,37.994c-10.491,2.287-21.778,4.337-33.712,6.143c-19.697,59.914-75.307,100.157-138.436,100.157 c-31.392,0-61.293-9.828-86.469-28.422c-0.504-0.372-0.988-0.765-1.487-1.143c-0.546-0.414-1.089-0.83-1.629-1.252 c-0.913-0.712-1.817-1.433-2.711-2.164c-0.386-0.316-0.768-0.637-1.151-0.957c-1.053-0.879-2.095-1.767-3.12-2.672 c-0.074-0.065-0.146-0.132-0.219-0.197c-19.271-17.089-33.555-38.747-41.642-63.349c-11.937-1.806-23.227-3.857-33.72-6.144 C25.448,218.275,0,204.782,0,190.354c0-9.068,9.674-17.628,28.753-25.442c18.035-7.386,44.206-13.815,75.694-18.599l0.139-0.449 c2.801-9.062,6.515-17.888,11.039-26.234l0.142-0.262h0.059c24.733-45.308,72.825-76.114,127.978-76.114 c28.965,0,55.981,8.498,78.691,23.129h0.103l0.124,0.08c14.073,9.086,26.4,20.442,36.638,33.754l0.619,0.805h-0.083 c10.235,13.48,18.18,28.788,23.25,45.342c31.442,4.793,57.594,11.22,75.637,18.59C477.909,172.768,487.607,181.313,487.607,190.354 z M322.195,67.383H202.816c-8.999,0-16.32,7.321-16.32,16.32s7.321,16.319,16.32,16.319h155.053 C347.895,87.259,335.831,76.207,322.195,67.383z M105.772,145.512h162.654c6.932,0,12.571-5.64,12.571-12.572 s-5.64-12.572-12.571-12.572H116.421C112.116,128.332,108.538,136.743,105.772,145.512z M103.655,152.893 c-0.192,0.747-0.37,1.499-0.55,2.25l-0.984,4.366c-1.973,9.509-3.014,19.356-3.014,29.442c0,9.541,0.935,19.082,2.778,28.359 c39.567,5.838,89.322,9.023,141.919,9.023c44.384,0,86.744-2.268,122.668-6.484H212.633c-11.477,0-20.813-9.337-20.813-20.813 s9.337-20.813,20.813-20.813h175.469c-0.456-6.191-1.301-12.276-2.515-18.229l-3.123-12.411 c-5.094-17.044-13.25-32.776-23.829-46.56h-155.82c-9.55,0-17.32-7.77-17.32-17.319c0-9.55,7.77-17.32,17.32-17.32h117.803 c-22.275-14.011-48.614-22.129-76.816-22.129c-54.58,0-102.193,30.38-126.833,75.114h151.456c7.483,0,13.571,6.088,13.571,13.572 s-6.088,13.572-13.571,13.572H105.461c-0.199,0.647-0.391,1.297-0.581,1.949L103.655,152.893z M386.769,217.157 c4.077-0.609,8.046-1.247,11.895-1.912c40.524-7.006,63.767-16.59,63.767-26.294c0-10.765-27.577-21.035-75.681-28.205 c1.14,5.79,1.939,11.7,2.369,17.711l0.016,0.23c0.003,0.04,0.004,0.079,0.006,0.12c0.107,1.542,0.187,3.091,0.245,4.646 c0.009,0.245,0.02,0.488,0.028,0.732c0.051,1.583,0.086,3.17,0.086,4.766c0,1.208-0.016,2.416-0.045,3.624 c-0.004,0.17-0.014,0.34-0.019,0.51c-0.029,1.048-0.066,2.096-0.118,3.143c-0.003,0.061-0.008,0.122-0.011,0.183 C388.954,203.397,388.105,210.347,386.769,217.157z M388.313,196.308c0.002-0.042,0.005-0.083,0.008-0.125 c0.053-1.069,0.09-2.138,0.12-3.208c0.004-0.14,0.012-0.28,0.015-0.42c0.03-1.201,0.045-2.402,0.045-3.603 c0-1.492-0.029-3.014-0.079-4.548c-0.007-0.236-0.018-0.471-0.027-0.706c-0.052-1.394-0.121-2.799-0.212-4.212 c-0.006-0.087-0.011-0.175-0.017-0.262H212.633c-10.925,0-19.813,8.888-19.813,19.813s8.888,19.813,19.813,19.813h161.964 c3.786-0.489,7.489-1.002,11.11-1.536C387.081,210.402,387.955,203.366,388.313,196.308z M98.106,188.951 c0-9.648,0.952-19.076,2.75-28.205c-48.103,7.17-75.681,17.441-75.681,28.205c0,9.704,23.242,19.288,63.766,26.294 c3.85,0.666,7.819,1.303,11.897,1.913C99.029,207.926,98.106,198.439,98.106,188.951z M322.59,310.422H165.139 c23.417,15.223,50.433,23.227,78.664,23.227C272.541,333.648,299.706,325.247,322.59,310.422z M353.163,283.692H134.444 c5.123,5.909,10.714,11.376,16.7,16.373c0.391,0.325,0.778,0.653,1.172,0.975c0.841,0.687,1.693,1.359,2.548,2.027 c0.565,0.441,1.134,0.878,1.707,1.312c2.307,1.746,4.659,3.435,7.07,5.043h160.324 C334.803,302.195,344.621,293.543,353.163,283.692z M381.127,234.658c-38.682,5.785-84.144,8.997-131.895,9.223 c0.85,1.823,1.32,3.82,1.32,5.843c0,7.646-6.22,13.865-13.865,13.865h-81.696c-7.645,0-13.864-6.22-13.864-13.865 c0-3.983,1.679-7.664,4.624-10.294c-13.691-1.314-26.823-2.909-39.26-4.769c5.91,17.772,15.069,33.996,27.037,48.032h220.618 C365.885,268.859,375.14,252.659,381.127,234.658z M142.127,249.724c0,7.094,5.771,12.865,12.864,12.865h81.696 c7.094,0,12.865-5.771,12.865-12.865c0-2.029-0.483-4.042-1.401-5.84c-0.061,0-0.123,0-0.184,0l-0.092,0 c-1.355,0.006-2.71,0.011-4.071,0.011c-4.149,0-8.281-0.023-12.395-0.068c-0.155-0.002-0.31-0.004-0.465-0.006 c-3.979-0.045-7.941-0.11-11.883-0.196c-0.214-0.005-0.426-0.011-0.639-0.015c-3.936-0.088-7.852-0.197-11.745-0.326 c-0.119-0.004-0.237-0.008-0.356-0.012c-20.501-0.687-40.356-1.936-59.186-3.713C143.95,242.021,142.127,245.713,142.127,249.724z M486.607,190.354c0-17-38.545-33.035-103.146-42.932c1.199,4.025,2.238,8.119,3.089,12.281 c49.583,7.358,76.881,17.742,76.881,29.248c0,14.02-40.472,23.108-64.596,27.279c-7.568,1.308-15.596,2.508-24.014,3.597v0.021 h-0.162c-37.614,4.857-83.068,7.484-130.857,7.484c-58.559,0-113.617-3.943-155.032-11.103 c-24.125-4.171-64.596-13.26-64.596-27.279c0-11.505,27.296-21.889,76.875-29.247l0.102-0.453c0.304-1.46,0.635-2.911,0.982-4.355 l0.315-1.396l0.233-0.842c0.386-1.501,0.803-2.989,1.235-4.471l0.226-0.817C39.54,157.231,1,173.285,1,190.354 c0,21.517,60.086,40.05,145.849,48.165l0.011-0.008l0.192,0.018c11.453,1.084,23.178,1.968,35.126,2.65 c0.044,0.003,0.087,0.005,0.13,0.008c3.796,0.216,7.618,0.409,11.458,0.585c0.27,0.012,0.537,0.026,0.806,0.038 c3.71,0.167,7.442,0.311,11.189,0.44c0.349,0.012,0.696,0.026,1.046,0.038c3.788,0.126,7.596,0.231,11.419,0.318 c0.288,0.007,0.573,0.015,0.861,0.021c3.962,0.087,7.942,0.153,11.939,0.198c0.11,0.001,0.219,0.003,0.329,0.004 c4.133,0.045,8.282,0.068,12.448,0.068c1.618,0,3.228-0.006,4.838-0.013l0.109,0l0,0 C380.358,242.309,486.607,218.968,486.607,190.354z M121.276,175.419c0-6.593,5.363-11.956,11.956-11.956h36.231 c6.593,0,11.956,5.363,11.956,11.956s-5.363,11.957-11.956,11.957h-36.231C126.64,187.375,121.276,182.012,121.276,175.419z M122.276,175.419c0,6.042,4.915,10.957,10.956,10.957h36.231c6.041,0,10.956-4.915,10.956-10.957 c0-6.041-4.915-10.956-10.956-10.956h-36.231C127.191,164.463,122.276,169.378,122.276,175.419z M315.53,146.012 c0-6.158,5.011-11.168,11.169-11.168h7.282c6.158,0,11.168,5.01,11.168,11.168s-5.01,11.168-11.168,11.168h-7.282 C320.541,157.18,315.53,152.17,315.53,146.012z M316.53,146.012c0,5.607,4.562,10.168,10.169,10.168h7.282 c5.606,0,10.168-4.562,10.168-10.168c0-5.606-4.562-10.168-10.168-10.168h-7.282C321.091,135.844,316.53,140.405,316.53,146.012z M78.632,60.907c0.044,0.012,0.088,0.018,0.132,0.018c0.22,0,0.421-0.146,0.482-0.368c0.073-0.266-0.084-0.541-0.351-0.614 C51.28,52.379,55.957,28.211,56.169,27.186c0.056-0.27-0.118-0.535-0.388-0.591c-0.271-0.059-0.535,0.117-0.591,0.387 C55.136,27.242,50.097,53.092,78.632,60.907z" fill="#1a1a1a"/></g></svg>