<?xml version="1.0" encoding="UTF-8" standalone="no"?><svg xmlns="http://www.w3.org/2000/svg" xmlns:xlink="http://www.w3.org/1999/xlink" fill="#000000" height="484.6" preserveAspectRatio="xMidYMid meet" version="1" viewBox="0.0 -0.6 220.7 484.6" width="220.7" zoomAndPan="magnify"><g id="change1_1"><path d="M215.53,340.625v18.169H157.19v-2.308c0-10.998-4.046-21.669-11.476-30.266h0.02V192.454l15.77,73.057 c1.113,5.158,3.499,9.956,6.939,13.958l42.927,49.935C214.054,332.526,215.53,336.508,215.53,340.625z M64.68,356.486 c0-10.998,4.046-21.669,11.476-30.266h-0.02V190.833h-0.35l-15.456,74.53c-1.089,5.252-3.495,10.142-6.992,14.209L10.5,329.404 c-2.684,3.122-4.16,7.104-4.16,11.221v18.169H64.68V356.486z M116.968,83.072c-3.296-3.309-8.769-3.309-12.065,0 c-9.963,10.002-28.766,32.312-28.766,58.23V326.22h30.854v-14.564c0-2.179,1.766-3.945,3.945-3.945s3.945,1.766,3.945,3.945v14.564 h30.854V141.301C145.734,115.384,126.93,93.073,116.968,83.072z M168.443,279.469l25.283,29.41V135.333l-10.565-32.321 c-1.337-4.091-7.29-4.091-8.628,0l-10.565,32.321v137.301C165.156,275.086,166.653,277.387,168.443,279.469z M53.338,279.573 c1.836-2.136,3.362-4.502,4.564-7.024V135.333l-10.565-32.321c-1.337-4.091-7.29-4.091-8.628,0l-10.565,32.321v173.546 L53.338,279.573z M163.968,151.933h-7.641v30.131h7.641V151.933z M65.544,151.933h-7.641v30.131h7.641V151.933z M163.968,371.833 v25.708h29.758v-29.238L163.968,371.833z M28.551,368.302v29.238h29.758v-25.708L28.551,368.302z" fill="#eaf0ed"/></g><g id="change2_1"><path d="M65.544,240.225V79.693c0-33.807,24.527-62.909,37.523-75.955c4.299-4.316,11.438-4.316,15.738,0 c12.995,13.046,37.523,42.148,37.523,75.955v161.834l-10.593-49.072v-51.153c0-25.918-18.803-48.228-28.766-58.23 c-3.296-3.309-8.769-3.309-12.065,0c-9.963,10.002-28.766,32.312-28.766,58.23v49.532h-0.35L65.544,240.225z M114.88,402.268 v-90.612c0-2.179-1.766-3.945-3.945-3.945h0c-2.179,0-3.945,1.766-3.945,3.945v90.612c0,2.179,1.766,3.945,3.945,3.945h0 C113.114,406.213,114.88,404.446,114.88,402.268z M64.68,358.794H6.34v6.921l58.341,6.921V358.794z M157.19,372.637l58.341-6.921 v-6.921H157.19V372.637z M192.008,331.105h-26.345v17.349h26.345V331.105z" fill="#ec693d"/></g><g id="change3_1"><path d="M60.993,445.323c0,17.881-17.627,37.868-17.627,37.868s-17.627-19.987-17.627-37.868 s7.892-26.886,17.627-26.886S60.993,427.442,60.993,445.323z M179.286,418.47c-9.735,0-17.627,9.005-17.627,26.886 s17.627,37.868,17.627,37.868s17.627-19.987,17.627-37.868S189.021,418.47,179.286,418.47z M85.835,400.956 c-5.209,0-9.431,3.575-9.431,14.332c0,10.757,9.431,24.623,9.431,24.623s9.431-13.866,9.431-24.623 C95.266,404.53,91.044,400.956,85.835,400.956z M136.035,400.956c-5.209,0-9.431,3.575-9.431,14.332 c0,10.757,9.431,24.623,9.431,24.623s9.431-13.866,9.431-24.623C145.466,404.53,141.244,400.956,136.035,400.956z" fill="#ffd740"/></g><g id="change4_1"><path d="M129.577,145.563c-14.577-9.375-22.707-9.375-37.284,0c0-6.937,0-10.405,0-17.342 c14.577-9.375,22.707-9.375,37.284,0C129.577,135.158,129.577,138.627,129.577,145.563z M43.023,330.814 c-4.899,0-8.87,3.971-8.87,8.87c0,4.899,3.971,8.87,8.87,8.87s8.87-3.971,8.87-8.87C51.893,334.785,47.922,330.814,43.023,330.814z M193.716,397.54h-29.652l-5.288,11.922h40.957L193.716,397.54z M22.545,409.463h40.957l-5.288-11.922H28.561L22.545,409.463z M106.99,326.22H76.156l0,0c-7.43,8.597-11.476,19.269-11.476,30.266v24.464h42.31V326.22z M114.88,380.95h42.31v-24.464 c0-10.998-4.046-21.669-11.476-30.266l0,0H114.88V380.95z" fill="#249f6f"/></g><g id="change5_1"><path d="M92.022,127.801l-0.229,0.147v18.53l0.771-0.496c14.423-9.275,22.322-9.275,36.744,0l0.771,0.496v-18.531 l-0.229-0.147C115.178,118.366,106.693,118.366,92.022,127.801z M92.793,128.495c4.075-2.605,7.621-4.437,10.954-5.547v16.318 c-3.369,1.071-6.927,2.851-10.954,5.387V128.495z M110.935,138.066c-2.039,0-4.081,0.3-6.188,0.886v-16.336 c4.257-1.243,8.195-1.238,12.456,0.02v16.335C115.067,138.371,113.001,138.066,110.935,138.066z M129.078,144.652 c-3.996-2.516-7.53-4.287-10.875-5.361v-16.317c3.31,1.113,6.832,2.936,10.875,5.52V144.652z M194.226,308.694V135.333 l-10.59-32.476c-0.678-2.073-2.558-3.413-4.789-3.413s-4.111,1.34-4.79,3.413l-10.564,32.321l-0.024,0.076v16.18h-6.642V79.692 c0-14.375-4.894-43.404-37.668-76.308C116.984,1.202,114.064,0,110.935,0s-6.049,1.202-8.223,3.384 C69.937,36.288,65.043,65.317,65.043,79.692v71.741h-6.642v-16.1l-10.59-32.476c-0.678-2.073-2.558-3.413-4.789-3.413 c-2.231,0-4.111,1.34-4.789,3.413l-10.565,32.321l-0.025,173.515l-17.524,20.385c-2.76,3.212-4.281,7.313-4.281,11.548v17.669v1 v6.865l22.211,2.635v28.646l-6.319,12.522h42.538l-5.462-12.314v-25.206l5.372,0.637v8.37h10.482l-3.728,11.551h29.801 l-4.241-11.551h9.995v20.817c0,2.45,1.994,4.444,4.445,4.444s4.445-1.994,4.445-4.444v-20.817h9.482l-3.728,11.551h29.801 l-4.241-11.551h10.996v-8.37l5.778-0.686v25.255l-5.462,12.313h42.538l-6.318-12.52v-28.697l21.363-2.535l0.441-0.052v-6.865v-1 v-17.669c0-4.234-1.521-8.335-4.281-11.548L194.226,308.694z M168.822,279.142c-0.427-0.497-0.839-1.008-1.234-1.533 c-0.034-0.045-0.065-0.094-0.099-0.139c-0.361-0.485-0.712-0.978-1.045-1.484c-0.008-0.012-0.015-0.024-0.023-0.036 c-0.718-1.096-1.372-2.241-1.953-3.429c0,0,0-0.001,0-0.001v-21.641h28.758v56.652L168.822,279.142z M161.992,265.405 l-5.165-23.929v-58.912h6.642v87.664C162.852,268.664,162.348,267.053,161.992,265.405z M145.234,325.72h-0.613h-29.24v-14.064 c0-2.451-1.994-4.445-4.445-4.445s-4.445,1.994-4.445,4.445v14.064H77.229h-0.593V191.333v-1v-49.032 c0-10.884,3.718-32.877,28.62-57.876c1.5-1.506,3.517-2.335,5.679-2.335c2.162,0,4.178,0.829,5.677,2.335 c24.902,24.999,28.621,46.992,28.621,57.876v46.467v4.686V325.72z M57.402,242.831H28.645v-13.526h28.757V242.831z M58.402,182.564 h6.642v57.609l-5.203,25.088c-0.343,1.653-0.835,3.268-1.438,4.839V182.564z M193.226,242.831h-28.758v-13.526h28.758V242.831z M175.008,103.167c0.541-1.655,2.048-2.724,3.839-2.724s3.298,1.069,3.838,2.724l10.541,32.245v2.103h-28.758v-2.103 L175.008,103.167z M164.468,145.563h28.758v75.695h-28.758v-38.694v-31.131V145.563z M163.468,152.433v29.131h-6.642v-29.131 H163.468z M103.42,4.09c1.985-1.993,4.654-3.09,7.515-3.09c2.861,0,5.53,1.098,7.515,3.09 c23.87,23.963,32.828,45.808,35.909,61.362H67.512C70.593,49.898,79.551,28.054,103.42,4.09z M66.043,79.692 c0-3.559,0.305-8.028,1.271-13.24h87.242c0.966,5.211,1.271,9.68,1.271,13.24v71.741v31.131v54.276l-9.593-44.439v-51.1 c0-11.039-3.756-33.329-28.912-58.583c-1.688-1.695-3.957-2.629-6.386-2.629c0,0,0,0,0,0c-2.43,0-4.698,0.934-6.387,2.629 c-25.155,25.254-28.912,47.544-28.912,58.583v49.032H75.38l-9.336,45.018v-52.787v-31.131V79.692z M65.043,152.433v29.131h-6.642 v-29.131H65.043z M57.402,182.564v38.694H28.645v-75.695h28.757v5.87V182.564z M39.185,103.167 c0.541-1.655,2.048-2.724,3.839-2.724c1.791,0,3.297,1.069,3.838,2.724l10.54,32.245v2.103H28.645v-2.103L39.185,103.167z M28.645,250.878h28.757v21.556c-0.001,0.003-0.002,0.005-0.003,0.008c-0.583,1.213-1.241,2.38-1.966,3.497 c-0.015,0.023-0.028,0.047-0.043,0.069c-0.327,0.502-0.674,0.989-1.028,1.469c-0.049,0.066-0.093,0.136-0.142,0.202 c-0.403,0.537-0.823,1.06-1.26,1.568L28.645,307.53V250.878z M6.84,340.625c0-3.995,1.435-7.865,4.04-10.896l42.838-49.831 c0.456-0.531,0.893-1.077,1.312-1.635c0.06-0.079,0.113-0.164,0.172-0.244c0.361-0.49,0.712-0.987,1.044-1.496 c0.039-0.06,0.074-0.123,0.113-0.184c0.347-0.539,0.679-1.087,0.993-1.646c0.025-0.044,0.047-0.091,0.072-0.135 c0.32-0.576,0.623-1.16,0.907-1.754c0.007-0.014,0.015-0.027,0.021-0.041l0.049-0.102v-0.012c1.08-2.288,1.902-4.698,2.418-7.185 l14.816-71.444v132.038c-0.204,0.238-0.396,0.485-0.596,0.726c-0.23,0.28-0.465,0.557-0.689,0.841 c-0.22,0.279-0.428,0.565-0.642,0.849c-0.211,0.281-0.428,0.559-0.632,0.843c-0.21,0.291-0.407,0.589-0.61,0.884 c-0.195,0.285-0.396,0.566-0.585,0.854c-0.197,0.301-0.382,0.607-0.572,0.911c-0.181,0.29-0.367,0.577-0.541,0.87 c-0.184,0.31-0.356,0.625-0.533,0.938c-0.166,0.294-0.338,0.586-0.497,0.883c-0.171,0.319-0.329,0.643-0.493,0.964 c-0.151,0.298-0.309,0.593-0.454,0.894c-0.157,0.326-0.301,0.658-0.451,0.987c-0.137,0.302-0.28,0.601-0.411,0.905 c-0.143,0.334-0.273,0.673-0.409,1.01c-0.122,0.304-0.251,0.606-0.367,0.913c-0.128,0.34-0.243,0.683-0.363,1.026 c-0.109,0.309-0.224,0.616-0.326,0.926c-0.113,0.345-0.212,0.694-0.317,1.042c-0.094,0.312-0.195,0.621-0.283,0.935 c-0.098,0.351-0.182,0.705-0.271,1.058c-0.08,0.314-0.167,0.626-0.24,0.942c-0.083,0.356-0.15,0.716-0.224,1.074 c-0.065,0.315-0.138,0.628-0.196,0.944c-0.069,0.375-0.123,0.753-0.183,1.129c-0.048,0.302-0.104,0.602-0.146,0.904 c-0.055,0.397-0.094,0.796-0.138,1.195c-0.032,0.285-0.072,0.569-0.098,0.854c-0.042,0.45-0.066,0.901-0.094,1.352 c-0.015,0.236-0.038,0.471-0.049,0.707c-0.032,0.688-0.048,1.377-0.048,2.067v1.809H6.84V340.625z M23.357,408.963l5.511-10.923 h29.02l4.845,10.923H23.357z M57.809,397.041H29.051v-28.127l28.757,3.412V397.041z M58.809,371.437v-0.049l-30.757-3.648v0.048 L6.84,365.271v-5.977h57.34v12.78L58.809,371.437z M65.18,380.451V373.2v-13.905v-1v-1.809c0-0.675,0.016-1.349,0.047-2.021 c0.01-0.226,0.033-0.451,0.047-0.677c0.028-0.446,0.052-0.893,0.093-1.338c0.023-0.251,0.059-0.5,0.086-0.75 c0.046-0.418,0.087-0.837,0.145-1.254c0.038-0.274,0.089-0.546,0.132-0.819c0.062-0.391,0.118-0.783,0.19-1.172 c0.052-0.282,0.117-0.562,0.175-0.843c0.077-0.378,0.15-0.756,0.237-1.132c0.066-0.284,0.145-0.566,0.216-0.849 c0.093-0.369,0.181-0.74,0.284-1.107c0.079-0.284,0.171-0.565,0.256-0.847c0.109-0.363,0.213-0.727,0.331-1.087 c0.093-0.284,0.199-0.565,0.298-0.847c0.124-0.354,0.243-0.71,0.376-1.062c0.108-0.286,0.228-0.568,0.342-0.852 c0.138-0.344,0.271-0.689,0.417-1.03c0.123-0.286,0.257-0.567,0.386-0.85c0.151-0.334,0.298-0.67,0.457-1.001 c0.136-0.282,0.284-0.56,0.426-0.84c0.166-0.327,0.327-0.656,0.501-0.979c0.149-0.278,0.31-0.551,0.466-0.827 c0.18-0.319,0.355-0.64,0.543-0.955c0.163-0.273,0.337-0.541,0.505-0.812c0.194-0.311,0.383-0.625,0.585-0.932 c0.174-0.266,0.36-0.526,0.54-0.789c0.209-0.305,0.414-0.613,0.63-0.914c0.186-0.259,0.383-0.512,0.575-0.768 c0.223-0.297,0.442-0.597,0.673-0.889c0.199-0.253,0.408-0.499,0.613-0.748c0.212-0.259,0.422-0.519,0.64-0.774h30.098v53.73H65.18 z M114.38,402.268c0,1.899-1.546,3.444-3.445,3.444c-1.9,0-3.445-1.545-3.445-3.444v-20.817v-54.73v-1v-14.064 c0-1.899,1.545-3.445,3.445-3.445c1.899,0,3.445,1.546,3.445,3.445v14.064v1v54.73V402.268z M156.69,380.451h-41.31v-53.73h30.098 c0.203,0.237,0.398,0.48,0.595,0.72c0.221,0.269,0.447,0.535,0.662,0.808c0.215,0.273,0.419,0.553,0.627,0.83 c0.207,0.276,0.42,0.549,0.62,0.828c0.203,0.282,0.395,0.571,0.591,0.857c0.193,0.281,0.391,0.56,0.577,0.844 c0.192,0.294,0.373,0.593,0.558,0.89c0.177,0.284,0.359,0.565,0.53,0.852c0.181,0.304,0.349,0.613,0.523,0.92 c0.162,0.287,0.33,0.572,0.486,0.862c0.168,0.313,0.324,0.632,0.485,0.949c0.147,0.289,0.3,0.577,0.441,0.869 c0.156,0.325,0.3,0.654,0.449,0.982c0.132,0.29,0.269,0.577,0.394,0.869c0.143,0.333,0.273,0.671,0.408,1.008 c0.117,0.291,0.24,0.581,0.351,0.874c0.13,0.343,0.246,0.69,0.367,1.036c0.102,0.291,0.211,0.58,0.307,0.873 c0.115,0.35,0.216,0.703,0.322,1.056c0.088,0.293,0.184,0.584,0.266,0.879c0.101,0.362,0.188,0.727,0.28,1.091 c0.073,0.288,0.153,0.574,0.22,0.863c0.087,0.376,0.159,0.754,0.237,1.132c0.058,0.281,0.123,0.561,0.175,0.843 c0.072,0.389,0.128,0.781,0.19,1.172c0.043,0.273,0.094,0.545,0.132,0.819c0.058,0.417,0.099,0.835,0.145,1.254 c0.027,0.25,0.063,0.499,0.086,0.75c0.041,0.447,0.066,0.896,0.093,1.344c0.014,0.224,0.036,0.447,0.046,0.672 c0.031,0.673,0.047,1.347,0.047,2.021v1.809v1V373.2V380.451z M159.543,408.963l4.846-10.923h29.019l5.512,10.923H159.543z M193.226,397.041h-28.758v-24.764l13.516-1.604l15.242-1.808V397.041z M215.031,365.271l-26.221,3.111l-25.342,3.006v0.001 l-5.778,0.686v-12.78h57.341V365.271z M215.031,358.294H157.69v-1.809c0-0.69-0.016-1.379-0.048-2.067 c-0.01-0.223-0.032-0.446-0.046-0.669c-0.028-0.464-0.054-0.928-0.097-1.391c-0.023-0.252-0.059-0.503-0.087-0.754 c-0.047-0.432-0.09-0.865-0.15-1.296c-0.036-0.26-0.085-0.519-0.125-0.778c-0.065-0.419-0.127-0.839-0.204-1.257 c-0.05-0.27-0.113-0.538-0.168-0.807c-0.082-0.404-0.16-0.809-0.253-1.211c-0.063-0.271-0.138-0.539-0.206-0.809 c-0.1-0.397-0.195-0.796-0.305-1.191c-0.074-0.266-0.161-0.528-0.24-0.793c-0.118-0.396-0.232-0.792-0.361-1.185 c-0.086-0.261-0.184-0.519-0.274-0.779c-0.136-0.392-0.268-0.785-0.415-1.173c-0.099-0.261-0.209-0.518-0.312-0.777 c-0.153-0.383-0.301-0.767-0.464-1.146c-0.111-0.259-0.234-0.514-0.35-0.771c-0.169-0.375-0.334-0.752-0.513-1.123 c-0.121-0.252-0.254-0.499-0.38-0.748c-0.187-0.371-0.371-0.744-0.568-1.111c-0.132-0.246-0.275-0.487-0.412-0.731 c-0.204-0.365-0.405-0.731-0.619-1.091c-0.145-0.244-0.301-0.482-0.451-0.724c-0.219-0.354-0.435-0.709-0.663-1.057 c-0.159-0.242-0.328-0.479-0.492-0.719c-0.232-0.341-0.461-0.684-0.703-1.02c-0.174-0.241-0.358-0.477-0.536-0.716 c-0.244-0.327-0.485-0.656-0.739-0.977c-0.188-0.239-0.387-0.471-0.58-0.707c-0.231-0.283-0.456-0.569-0.695-0.847V197.14 l10.548,48.865l0.045,0.207v0l4.188,19.404c0.54,2.502,1.388,4.926,2.5,7.222l0.003,0.015c0.008,0.018,0.019,0.034,0.027,0.052 c0.261,0.535,0.539,1.06,0.829,1.58c0.047,0.085,0.09,0.173,0.138,0.257c0.284,0.5,0.587,0.989,0.898,1.473 c0.063,0.099,0.121,0.202,0.186,0.3c0.302,0.459,0.621,0.905,0.946,1.348c0.082,0.112,0.158,0.23,0.241,0.341 c0.41,0.544,0.836,1.075,1.281,1.592l26.162,30.434v-0.001l16.766,19.503c2.604,3.031,4.039,6.9,4.039,10.896V358.294z M43.023,330.314c-5.167,0-9.37,4.203-9.37,9.369c0,5.167,4.204,9.37,9.37,9.37s9.37-4.203,9.37-9.37 C52.393,334.517,48.19,330.314,43.023,330.314z M43.023,348.053c-4.615,0-8.37-3.755-8.37-8.37s3.755-8.369,8.37-8.369 s8.37,3.754,8.37,8.369S47.639,348.053,43.023,348.053z M165.163,348.954h27.346v-18.349h-27.346V348.954z M166.163,331.605h25.346 v16.349h-25.346V331.605z M43.365,417.937c-11.012,0-18.127,10.75-18.127,27.387c0,17.863,17.574,37.997,17.752,38.198l0.375,0.425 l0.375-0.425c0.178-0.201,17.752-20.335,17.752-38.198C61.493,428.687,54.377,417.937,43.365,417.937z M43.365,482.421 c-2.544-3.022-17.127-21.053-17.127-37.098c0-16.029,6.723-26.387,17.127-26.387s17.127,10.357,17.127,26.387 C60.493,461.364,45.909,479.399,43.365,482.421z M179.286,417.969c-11.012,0-18.127,10.75-18.127,27.387 c0,17.863,17.574,37.998,17.752,38.199l0.375,0.425l0.375-0.425c0.178-0.201,17.753-20.336,17.753-38.199 C197.414,428.719,190.298,417.969,179.286,417.969z M179.286,482.455c-2.544-3.023-17.127-21.059-17.127-37.099 c0-16.029,6.723-26.387,17.127-26.387c10.405,0,17.128,10.357,17.128,26.387C196.414,461.396,181.83,479.431,179.286,482.455z M85.835,400.456c-4.531,0-9.931,2.573-9.931,14.832c0,10.787,9.129,24.333,9.518,24.904l0.414,0.607l0.414-0.607 c0.389-0.571,9.518-14.117,9.518-24.904C95.767,403.029,90.366,400.456,85.835,400.456z M85.835,438.997 c-1.81-2.822-8.931-14.517-8.931-23.709c0-9.049,3.088-13.832,8.931-13.832c5.843,0,8.932,4.783,8.932,13.832 C94.767,424.48,87.645,436.174,85.835,438.997z M136.035,400.456c-4.53,0-9.931,2.573-9.931,14.832 c0,10.787,9.129,24.333,9.518,24.904l0.413,0.607l0.413-0.607c0.389-0.571,9.519-14.117,9.519-24.904 C145.966,403.029,140.566,400.456,136.035,400.456z M136.035,438.998c-1.81-2.822-8.931-14.514-8.931-23.71 c0-9.049,3.088-13.832,8.931-13.832s8.932,4.783,8.932,13.832C144.966,424.48,137.844,436.174,136.035,438.998z M0,147.556h1 v65.259H0V147.556z M10.358,194.184h-1v-37.508h1V194.184z M10.358,218.871h-1v-15.466h1V218.871z M220.709,239.33v65.259h-1 V239.33H220.709z M211.351,295.469h-1v-37.508h1V295.469z M211.351,248.74h-1v-15.466h1V248.74z" fill="#1a1a1a"/></g></svg>