<?xml version="1.0" encoding="UTF-8" standalone="no"?><svg xmlns="http://www.w3.org/2000/svg" xmlns:xlink="http://www.w3.org/1999/xlink" fill="#ffde59" height="176.4" preserveAspectRatio="xMidYMid meet" version="1" viewBox="12.2 11.9 175.8 176.4" width="175.8" zoomAndPan="magnify"><g id="change1_1"><path d="m154.5 178.4c-8.3-52.3-33.1-90.6-73.5-113.9-30.1-17.3-58.6-19.6-58.9-19.6l-7.1-.6c-1.6-.1-2.8-1.5-2.7-3.2l.5-7.1 1.2-19.2c.1-1.6 1.5-2.9 3.2-2.8l7.2.5c1.4.1 35.4 2.6 72.3 23.6 34.1 19.5 77.5 59.1 89.9 137.2l1.1 7.1c.3 1.6-.8 3.1-2.5 3.4l-26.2 4.2c-1.6.3-3.1-.8-3.4-2.5z"/></g></svg>