<?xml version="1.0" encoding="UTF-8" standalone="no"?><svg xmlns="http://www.w3.org/2000/svg" xmlns:xlink="http://www.w3.org/1999/xlink" fill="#000000" height="130.3" preserveAspectRatio="xMidYMid meet" version="1" viewBox="-11.5 -4.8 494.0 130.3" width="494" zoomAndPan="magnify"><g clip-rule="evenodd" fill-rule="evenodd"><g id="change1_1"><path d="M237.9,125.4c-56.7,0-113.4,0.1-170.1,0c-22,0-41.1-7.5-56.2-23.8 c-23.1-24.9-21.9-61.8,2.7-85.4c13-12.4,28.6-19,46.3-20.7c3.1-0.3,6.2-0.3,9.3-0.3c112.5,0,225.1,0,337.6,0 c18.9,0,35.9,5.6,50.5,17.9c12.4,10.5,20.2,23.6,22.2,39.9c2.3,18.2-3.2,34.2-15.2,47.8c-12.3,13.9-28,21.5-46.3,24 c-4.3,0.6-8.5,0.7-12.8,0.7C349.9,125.4,293.9,125.4,237.9,125.4z M238.1,0C181.5,0,124.8,0,68.2,0c-3,0-6,0.1-9,0.4 C43.6,2.3,29.7,8.3,18.2,19.2C7.8,29.1,1.3,41.1,0.2,55.6c-1.5,19.8,6.2,35.9,21.2,48.5C35,115.5,51,120.5,68.6,120.5 c112.9,0,225.7,0,338.6,0c16.1,0,31-4.2,44-13.8c13.8-10.2,22.5-23.5,24.3-40.8c1.7-16.3-3.3-30.6-14.1-42.7 c-14.1-15.7-32.1-23-53-23.1C351.6-0.1,294.8,0,238.1,0z" fill="#ffd740"/></g><g id="change2_1"><path d="M238.1,0c56.8,0,113.5-0.1,170.3,0c20.9,0,38.9,7.4,53,23.1 c10.9,12.1,15.9,26.5,14.1,42.7c-1.8,17.2-10.6,30.6-24.3,40.8c-13,9.6-27.9,13.8-44,13.8c-112.9,0-225.7,0-338.6,0 c-17.6,0-33.6-5-47.2-16.4C6.4,91.5-1.3,75.4,0.2,55.6c1.1-14.4,7.6-26.4,18-36.3C29.7,8.3,43.6,2.3,59.3,0.5c3-0.4,6-0.4,9-0.4 C124.8,0,181.5,0,238.1,0z" fill="#1d9eeb"/></g></g></svg>