<svg xmlns="http://www.w3.org/2000/svg" xmlns:xlink="http://www.w3.org/1999/xlink" width="1920" zoomAndPan="magnify" viewBox="0 0 1440 809.999993" height="1080" preserveAspectRatio="xMidYMid meet" version="1.0"><path fill="#1d9eeb" d="M 1439.683594 401.242188 L 1439.683594 810.148438 L 0.316406 810.148438 L 0.316406 557.894531 C 0.316406 557.894531 182.25 311.398438 580.09375 569.414062 C 628.742188 601.378906 681.710938 626.140625 737.558594 643.132812 C 758.574219 649.46875 780.164062 654.652344 801.757812 658.105469 L 802.332031 658.105469 C 834 663.578125 866.238281 666.167969 898.480469 666.167969 C 1206.21875 663 1439.683594 401.242188 1439.683594 401.242188 Z M 1439.683594 401.242188 " fill-opacity="1" fill-rule="nonzero"/><path fill="#d9f1ff" d="M 580.09375 569.414062 C 628.742188 601.378906 681.710938 626.140625 737.558594 643.132812 C 640.835938 620.382812 474.730469 519.882812 300.855469 514.125 C 106.539062 507.789062 0.316406 633.917969 0.316406 633.917969 L 0.316406 557.894531 C 0.316406 557.894531 182.25 311.398438 580.09375 569.414062 Z M 898.480469 666.167969 C 902.511719 666.746094 1101.433594 701.011719 1439.683594 547.527344 L 1439.683594 401.242188 C 1439.683594 401.242188 1206.21875 663 898.480469 666.167969 Z M 898.480469 666.167969 " fill-opacity="1" fill-rule="nonzero"/><path fill="#1d9eeb" d="M 0.316406 789.703125 L 1439.683594 789.703125 L 1439.683594 810.148438 L 0.316406 810.148438 Z M 0.316406 789.703125 " fill-opacity="1" fill-rule="nonzero"/></svg>