<svg width="46" height="46" viewBox="0 0 46 46" fill="none" xmlns="http://www.w3.org/2000/svg">
<circle cx="23" cy="23" r="23" fill="white"/>
<path d="M14.1648 28.3267C14.3219 28.1696 14.533 28.0812 14.7539 28.0812H35.201C35.5741 28.0812 35.7606 28.5329 35.4955 28.7931L31.4552 32.8334C31.2981 32.9905 31.087 33.0789 30.8661 33.0789H10.419C10.0459 33.0789 9.85936 32.6272 10.1245 32.367L14.1648 28.3267Z" fill="#9945FF"/>
<path d="M14.1648 13.2455C14.3219 13.0884 14.533 13 14.7539 13H35.201C35.5741 13 35.7606 13.4517 35.4955 13.7118L31.4552 17.7473C31.2981 17.9044 31.087 17.9927 30.8661 17.9927H10.419C10.0459 17.9927 9.85936 17.5411 10.1245 17.2809L14.1648 13.2455Z" fill="#9945FF"/>
<path d="M31.4552 20.737C31.2981 20.5799 31.087 20.4915 30.8661 20.4915H10.419C10.0459 20.4915 9.85936 20.9432 10.1245 21.2034L14.1648 25.2388C14.3219 25.3959 14.533 25.4842 14.7539 25.4842H35.201C35.5741 25.4842 35.7606 25.0326 35.4955 24.7724L31.4552 20.737Z" fill="#9945FF"/>
</svg>
